<svg xmlns="http://www.w3.org/2000/svg" xmlns:xlink="http://www.w3.org/1999/xlink" viewBox="0 0 140.99 105.61"><defs><style>.cls-1{fill:#6ad6ef;}.cls-2{fill:url(#linear-gradient);}.cls-3{fill:#002259;}.cls-4{fill:url(#New_Gradient_Swatch_28);}.cls-5{fill:url(#linear-gradient-2);}.cls-6{fill:url(#linear-gradient-3);}.cls-7{fill:url(#linear-gradient-4);}.cls-8{fill:url(#linear-gradient-5);}.cls-9{fill:url(#linear-gradient-6);}.cls-10{fill:url(#linear-gradient-7);}.cls-11{fill:url(#linear-gradient-8);}.cls-12{fill:#b51500;}.cls-13{fill:url(#linear-gradient-9);}.cls-14{fill:url(#New_Gradient_Swatch_28-2);}.cls-15{fill:url(#linear-gradient-10);}.cls-16{fill:url(#linear-gradient-11);}.cls-17{fill:url(#linear-gradient-12);}.cls-18{fill:url(#linear-gradient-13);}.cls-19{fill:url(#linear-gradient-14);}.cls-20{fill:url(#linear-gradient-15);}</style><linearGradient id="linear-gradient" x1="778.73" y1="348.76" x2="769.17" y2="332.19" gradientTransform="matrix(-1, 0, 0, 1, 844.48, -329.43)" gradientUnits="userSpaceOnUse"><stop offset="0.01" stop-color="#002259"/><stop offset="1" stop-color="#1c75bc"/></linearGradient><linearGradient id="New_Gradient_Swatch_28" x1="7248.38" y1="4143.31" x2="7285.24" y2="4143.31" gradientTransform="matrix(-0.5, -0.87, -0.87, 0.5, 7319, 4248.34)" gradientUnits="userSpaceOnUse"><stop offset="0" stop-color="#f3aa25"/><stop offset="1" stop-color="#feec99"/></linearGradient><linearGradient id="linear-gradient-2" x1="7266.81" y1="4175.23" x2="7266.81" y2="4153.95" gradientTransform="matrix(-0.5, -0.87, -0.87, 0.5, 7319, 4248.34)" gradientUnits="userSpaceOnUse"><stop offset="0" stop-color="#ed1c24"/><stop offset="1" stop-color="#ff8e01"/></linearGradient><linearGradient id="linear-gradient-3" x1="1996.46" y1="-686.46" x2="1959.59" y2="-707.75" gradientTransform="matrix(-1, 0, 0, 1, 2075.41, 745.13)" xlink:href="#linear-gradient-2"/><linearGradient id="linear-gradient-4" x1="753.88" y1="390.83" x2="745.46" y2="376.25" xlink:href="#linear-gradient"/><linearGradient id="linear-gradient-5" x1="100.42" y1="64.82" x2="134.46" y2="64.82" gradientTransform="matrix(1, 0, 0, 1, 0, 0)" xlink:href="#linear-gradient"/><linearGradient id="linear-gradient-6" x1="113.44" y1="64.82" x2="121.44" y2="64.82" gradientTransform="matrix(1, 0, 0, 1, 0, 0)" xlink:href="#linear-gradient"/><linearGradient id="linear-gradient-7" x1="762.36" y1="428.24" x2="738.81" y2="387.45" xlink:href="#linear-gradient"/><linearGradient id="linear-gradient-8" x1="-4823.67" y1="3949.55" x2="-4800.61" y2="3949.55" gradientTransform="translate(5918 2262.34) rotate(60)" xlink:href="#linear-gradient-2"/><linearGradient id="linear-gradient-9" x1="-4812.14" y1="3969.52" x2="-4812.14" y2="3956.21" gradientTransform="translate(5918 2262.34) rotate(60)" xlink:href="#linear-gradient-2"/><linearGradient id="New_Gradient_Swatch_28-2" x1="7224.1" y1="4192.48" x2="7260.97" y2="4192.48" xlink:href="#New_Gradient_Swatch_28"/><linearGradient id="linear-gradient-10" x1="7242.54" y1="4224.41" x2="7242.54" y2="4203.12" xlink:href="#linear-gradient-2"/><linearGradient id="linear-gradient-11" x1="2026.9" y1="-640.86" x2="1990.04" y2="-662.14" gradientTransform="matrix(-1, 0, 0, 1, 2075.41, 745.13)" xlink:href="#linear-gradient-2"/><linearGradient id="linear-gradient-12" x1="-4840.72" y1="3993.76" x2="-4817.66" y2="3993.76" gradientTransform="translate(5918 2262.34) rotate(60)" xlink:href="#linear-gradient-2"/><linearGradient id="linear-gradient-13" x1="-4829.19" y1="4013.73" x2="-4829.19" y2="4000.42" gradientTransform="translate(5918 2262.34) rotate(60)" xlink:href="#linear-gradient-2"/><linearGradient id="linear-gradient-14" x1="824.81" y1="419.91" x2="818.5" y2="408.97" xlink:href="#linear-gradient"/><linearGradient id="linear-gradient-15" x1="843.42" y1="419.91" x2="837.11" y2="408.97" xlink:href="#linear-gradient"/></defs><g id="Слой_2" data-name="Слой 2"><g id="Layer_1" data-name="Layer 1"><polygon class="cls-1" points="83.28 0 89.66 11.05 76.91 11.05 70.53 0 83.28 0"/><polygon class="cls-2" points="76.91 11.05 70.53 22.1 64.15 11.05 70.53 0 76.91 11.05"/><polygon class="cls-3" points="89.66 11.05 76.91 11.05 70.53 22.1 83.28 22.1 89.66 11.05"/><polygon class="cls-4" points="103.53 16.1 115.82 37.39 91.25 37.39 78.96 16.1 103.53 16.1"/><polygon class="cls-5" points="91.25 37.39 78.96 58.67 66.67 37.39 78.96 16.1 91.25 37.39"/><polygon class="cls-6" points="115.82 37.39 91.25 37.39 78.96 58.67 103.53 58.67 115.82 37.39"/><polygon class="cls-1" points="106.04 44.38 111.65 54.11 100.42 54.11 94.81 44.38 106.04 44.38"/><polygon class="cls-7" points="100.42 54.11 94.81 63.83 89.19 54.11 94.81 44.38 100.42 54.11"/><polygon class="cls-3" points="111.65 54.11 100.42 54.11 94.81 63.83 106.04 63.83 111.65 54.11"/><polygon class="cls-1" points="125.29 51.22 140.99 78.42 109.59 78.42 93.89 51.22 125.29 51.22"/><polygon class="cls-8" points="123.11 54.99 134.46 74.65 111.77 74.65 100.42 54.99 123.11 54.99"/><polygon class="cls-1" points="120.76 59.08 127.39 70.56 114.13 70.56 107.5 59.08 120.76 59.08"/><polygon class="cls-9" points="118.77 62.51 121.44 67.13 116.11 67.13 113.44 62.51 118.77 62.51"/><polygon class="cls-10" points="109.59 78.42 93.89 105.61 78.19 78.42 93.89 51.22 109.59 78.42"/><polygon class="cls-3" points="140.99 78.42 109.59 78.42 93.89 105.61 125.29 105.61 140.99 78.42"/><polygon class="cls-11" points="95.36 63.02 79.98 63.02 87.67 76.33 103.05 76.33 95.36 63.02"/><polygon class="cls-12" points="87.67 76.33 79.98 89.65 95.36 89.65 103.05 76.33 87.67 76.33"/><polygon class="cls-13" points="79.98 63.02 87.67 76.33 79.98 89.65 72.3 76.33 79.98 63.02"/><polygon class="cls-14" points="73.08 61.71 85.37 82.99 60.8 82.99 48.51 61.71 73.08 61.71"/><polygon class="cls-15" points="60.8 82.99 48.51 104.28 36.22 82.99 48.51 61.71 60.8 82.99"/><polygon class="cls-16" points="85.37 82.99 60.8 82.99 48.51 104.28 73.08 104.28 85.37 82.99"/><polygon class="cls-17" points="48.55 70.36 33.17 70.36 40.86 83.67 56.24 83.67 48.55 70.36"/><polygon class="cls-12" points="40.86 83.67 33.17 96.99 48.55 96.99 56.24 83.67 40.86 83.67"/><polygon class="cls-18" points="33.17 70.36 40.86 83.67 33.17 96.99 25.49 83.67 33.17 70.36"/><polygon class="cls-1" points="31.24 77.72 35.45 85.01 27.03 85.01 22.82 77.72 31.24 77.72"/><polygon class="cls-19" points="27.03 85.01 22.82 92.3 18.61 85.01 22.82 77.72 27.03 85.01"/><polygon class="cls-3" points="35.45 85.01 27.03 85.01 22.82 92.3 31.24 92.3 35.45 85.01"/><polygon class="cls-1" points="12.63 77.72 16.84 85.01 8.42 85.01 4.21 77.72 12.63 77.72"/><polygon class="cls-20" points="8.42 85.01 4.21 92.3 0 85.01 4.21 77.72 8.42 85.01"/><polygon class="cls-3" points="16.84 85.01 8.42 85.01 4.21 92.3 12.63 92.3 16.84 85.01"/></g></g></svg>