<svg xmlns="http://www.w3.org/2000/svg" xmlns:xlink="http://www.w3.org/1999/xlink" viewBox="0 0 177.19 89.71"><defs><style>.cls-1{fill:url(#linear-gradient);}.cls-2{fill:url(#linear-gradient-2);}.cls-3{fill:url(#linear-gradient-3);}.cls-4{fill:url(#New_Gradient_Swatch_28);}.cls-5{fill:#38a5f1;}.cls-6{fill:#002259;}.cls-7{fill:#b51500;}.cls-8{fill:#6ad6ef;}.cls-9{fill:url(#linear-gradient-4);}.cls-10{fill:url(#New_Gradient_Swatch_28-2);}.cls-11{fill:url(#linear-gradient-5);}.cls-12{fill:url(#linear-gradient-6);}.cls-13{fill:url(#linear-gradient-7);}.cls-14{fill:url(#New_Gradient_Swatch_28-3);}.cls-15{fill:url(#linear-gradient-8);}</style><linearGradient id="linear-gradient" x1="4678.93" y1="1937.07" x2="4722.52" y2="1937.07" gradientTransform="matrix(1, 0, 0, -1, -4612.77, 1967.88)" gradientUnits="userSpaceOnUse"><stop offset="0" stop-color="#1c75bc"/><stop offset="0.99" stop-color="#002259"/></linearGradient><linearGradient id="linear-gradient-2" x1="4709.15" y1="11326.16" x2="4752.73" y2="11369.75" gradientTransform="matrix(1, 0, 0, -1, -4643.8, 11378.43)" gradientUnits="userSpaceOnUse"><stop offset="0" stop-color="#ed1c24"/><stop offset="0.66" stop-color="#ee2023"/><stop offset="1" stop-color="#ff8e01"/></linearGradient><linearGradient id="linear-gradient-3" x1="4709.15" y1="11347.96" x2="4752.73" y2="11347.96" gradientTransform="matrix(0.71, -0.71, -0.71, -0.71, 4766.9, 11400.31)" gradientUnits="userSpaceOnUse"><stop offset="0" stop-color="#ed1c24"/><stop offset="1" stop-color="#ff8e01"/></linearGradient><linearGradient id="New_Gradient_Swatch_28" x1="4722.52" y1="1954.18" x2="4756.75" y2="1954.18" gradientTransform="matrix(-0.71, -0.71, -0.71, 0.71, 4781.59, 1985.02)" gradientUnits="userSpaceOnUse"><stop offset="0" stop-color="#f3aa25"/><stop offset="1" stop-color="#feec99"/></linearGradient><linearGradient id="linear-gradient-4" x1="13292.11" y1="10487.29" x2="13277.9" y2="10462.68" gradientTransform="translate(-10387.03 13306.36) rotate(-90)" gradientUnits="userSpaceOnUse"><stop offset="0" stop-color="#1c75bc"/><stop offset="0.99" stop-color="#38a5f1"/></linearGradient><linearGradient id="New_Gradient_Swatch_28-2" x1="150.23" y1="89.71" x2="150.23" y2="63.04" gradientTransform="matrix(1, 0, 0, 1, 0, 0)" xlink:href="#New_Gradient_Swatch_28"/><linearGradient id="linear-gradient-5" x1="123.28" y1="76.38" x2="159.98" y2="76.38" gradientTransform="matrix(1, 0, 0, 1, 0, 0)" xlink:href="#linear-gradient-3"/><linearGradient id="linear-gradient-6" x1="107.1" y1="79.11" x2="123.44" y2="79.11" gradientUnits="userSpaceOnUse"><stop offset="0.01" stop-color="#002259"/><stop offset="1" stop-color="#1c75bc"/></linearGradient><linearGradient id="linear-gradient-7" x1="335.91" y1="76.38" x2="372.61" y2="76.38" gradientTransform="matrix(-1, 0, 0, 1, 389.82, 0)" xlink:href="#linear-gradient-6"/><linearGradient id="New_Gradient_Swatch_28-3" x1="43.74" y1="79.11" x2="70.08" y2="79.11" gradientTransform="matrix(1, 0, 0, 1, 0, 0)" xlink:href="#New_Gradient_Swatch_28"/><linearGradient id="linear-gradient-8" x1="319.73" y1="79.11" x2="336.07" y2="79.11" gradientTransform="matrix(-1, 0, 0, 1, 389.82, 0)" xlink:href="#linear-gradient-3"/></defs><g id="Слой_2" data-name="Слой 2"><g id="Layer_1" data-name="Layer 1"><rect class="cls-1" x="66.17" y="9.03" width="43.59" height="43.59" transform="translate(128.37 114.81) rotate(-135)"/><rect class="cls-2" x="66.17" y="9.03" width="43.58" height="43.58" transform="translate(3.97 71.23) rotate(-45)"/><polygon class="cls-3" points="118.78 30.82 57.14 30.82 87.96 0 118.78 30.82"/><polygon class="cls-4" points="87.96 0 8.74 30.82 57.14 30.82 87.96 0"/><polygon class="cls-5" points="87.96 0 163 30.82 118.78 30.82 87.96 0"/><polyline class="cls-6" points="87.96 61.64 163 30.82 118.78 30.82"/><polygon class="cls-7" points="87.96 61.64 8.74 30.82 57.14 30.82 87.96 61.64"/><polygon class="cls-8" points="71.55 40.29 87.96 49.77 87.96 30.82 71.55 21.35 71.55 40.29"/><polygon class="cls-6" points="73.52 39.16 86 46.37 86 31.95 73.52 24.75 73.52 39.16"/><polygon class="cls-8" points="75.9 37.78 83.61 42.23 83.61 33.34 75.9 28.89 75.9 37.78"/><polygon class="cls-6" points="77.88 36.64 81.63 38.8 81.63 34.48 77.88 32.31 77.88 36.64"/><polygon class="cls-9" points="87.96 30.82 104.36 21.35 87.96 11.88 71.55 21.35 87.96 30.82"/><polygon class="cls-6" points="87.96 49.77 87.96 30.82 104.36 21.35 104.36 40.29 87.96 49.77"/><polygon class="cls-10" points="123.28 63.04 159.98 89.71 177.19 89.71 123.28 63.04"/><polygon class="cls-11" points="123.28 63.04 159.98 89.71 141.44 89.71 123.28 63.04"/><polygon class="cls-8" points="107.1 68.5 123.44 89.71 133.45 89.71 107.1 68.5"/><polygon class="cls-12" points="107.1 68.5 123.44 89.71 112.65 89.71 107.1 68.5"/><polygon class="cls-8" points="53.91 63.04 17.21 89.71 0 89.71 53.91 63.04"/><polygon class="cls-13" points="53.91 63.04 17.21 89.71 35.74 89.71 53.91 63.04"/><polygon class="cls-14" points="70.08 68.5 53.75 89.71 43.74 89.71 70.08 68.5"/><polygon class="cls-15" points="70.08 68.5 53.75 89.71 64.53 89.71 70.08 68.5"/></g></g></svg>