<svg xmlns="http://www.w3.org/2000/svg" xmlns:xlink="http://www.w3.org/1999/xlink" viewBox="0 0 158.53 111.45"><defs><style>.cls-1{fill:#38a5f1;}.cls-2{fill:url(#linear-gradient);}.cls-3{fill:url(#linear-gradient-2);}.cls-4{fill:url(#linear-gradient-3);}.cls-5{fill:url(#New_Gradient_Swatch_28);}.cls-6{fill:url(#linear-gradient-4);}.cls-7{fill:url(#linear-gradient-5);}.cls-8{fill:url(#linear-gradient-6);}.cls-9{fill:url(#New_Gradient_Swatch_28-2);}.cls-10{fill:#fff;}.cls-11{fill:url(#New_Gradient_Swatch_4);}.cls-12{fill:#b51500;opacity:0.77;}</style><linearGradient id="linear-gradient" x1="41.09" y1="71.07" x2="118.51" y2="71.07" gradientUnits="userSpaceOnUse"><stop offset="0.01" stop-color="#002259"/><stop offset="1" stop-color="#1c75bc"/></linearGradient><linearGradient id="linear-gradient-2" x1="79.8" y1="24.82" x2="104.62" y2="24.82" xlink:href="#linear-gradient"/><linearGradient id="linear-gradient-3" x1="105.26" y1="76.29" x2="158.53" y2="76.29" xlink:href="#linear-gradient"/><linearGradient id="New_Gradient_Swatch_28" x1="116.02" y1="44.45" x2="147.77" y2="44.45" gradientUnits="userSpaceOnUse"><stop offset="0" stop-color="#f3aa25"/><stop offset="1" stop-color="#feec99"/></linearGradient><linearGradient id="linear-gradient-4" x1="131.89" y1="44.45" x2="147.77" y2="44.45" gradientUnits="userSpaceOnUse"><stop offset="0" stop-color="#ed1c24"/><stop offset="1" stop-color="#ff8e01"/></linearGradient><linearGradient id="linear-gradient-5" x1="0" y1="76.46" x2="52.51" y2="76.46" xlink:href="#linear-gradient"/><linearGradient id="linear-gradient-6" x1="1571.83" y1="45.09" x2="1538.16" y2="45.09" gradientTransform="matrix(-1, 0, 0, 1, 1581.25, 0)" xlink:href="#linear-gradient-4"/><linearGradient id="New_Gradient_Swatch_28-2" x1="8.96" y1="45.09" x2="25.79" y2="45.09" xlink:href="#New_Gradient_Swatch_28"/><linearGradient id="New_Gradient_Swatch_4" x1="79.8" y1="108.46" x2="79.8" y2="65.28" gradientUnits="userSpaceOnUse"><stop offset="0" stop-color="#ff5324"/><stop offset="1" stop-color="#f7931e"/></linearGradient></defs><g id="Слой_2" data-name="Слой 2"><g id="Layer_1" data-name="Layer 1"><polygon class="cls-1" points="99.16 54.31 60.45 54.31 41.09 87.83 118.51 87.83 99.16 54.31"/><polygon class="cls-2" points="99.16 54.31 41.09 87.83 118.51 87.83 99.16 54.31"/><circle class="cls-1" cx="79.8" cy="24.82" r="24.82"/><path class="cls-3" d="M79.8,0V49.64A24.82,24.82,0,1,0,79.8,0Z"/><polygon class="cls-1" points="145.21 64.76 118.58 64.76 105.26 87.83 158.53 87.83 145.21 64.76"/><polygon class="cls-4" points="145.21 64.76 105.26 87.83 158.53 87.83 145.21 64.76"/><circle class="cls-5" cx="131.89" cy="44.45" r="15.87"/><path class="cls-6" d="M131.89,28.57V60.32a15.88,15.88,0,1,0,0-31.75Z"/><polygon class="cls-1" points="39.38 65.09 13.13 65.09 0 87.83 52.51 87.83 39.38 65.09"/><polygon class="cls-7" points="39.38 65.09 0 87.83 52.51 87.83 39.38 65.09"/><circle class="cls-8" cx="26.26" cy="45.09" r="16.83"/><path class="cls-9" d="M25.79,28.25V61.92a16.84,16.84,0,0,1,0-33.67Z"/><path class="cls-10" d="M58.85,74.14l0,0-.15.17,0,0a1.13,1.13,0,0,0-.15.21,1.63,1.63,0,0,0-.11.23s0,0,0,0a1.18,1.18,0,0,0-.07.2v0a2.24,2.24,0,0,0-.07.51h0V98.11a2.1,2.1,0,0,0,1.05,1.82l19.46,11.24h0a1.27,1.27,0,0,0,.23.12h0l.23.08h.06l.19,0h.07l.25,0,.25,0h.06l.2,0h0l.24-.08h0a1.34,1.34,0,0,0,.24-.12h0l19.46-11.24a2.08,2.08,0,0,0,1.06-1.82V75.63h0a2.24,2.24,0,0,0-.07-.51v0c0-.07-.05-.14-.07-.2s0,0,0,0a1.63,1.63,0,0,0-.11-.23l-.14-.21,0-.05-.14-.15,0,0a2.59,2.59,0,0,0-.42-.32h0L80.85,62.57a2.14,2.14,0,0,0-2.11,0L59.3,73.8A2.05,2.05,0,0,0,58.85,74.14Z"/><path class="cls-11" d="M61.4,75.68l0,0-.13.15,0,0-.12.19-.1.2,0,0-.06.17v0a1.82,1.82,0,0,0-.06.46h0V96.74a1.86,1.86,0,0,0,.93,1.61l17.09,9.86h0a1.24,1.24,0,0,0,.2.1h0l.2.07,0,0,.17,0h.55l.18,0,0,0,.2-.07h0l.2-.1h0l17.1-9.86a1.86,1.86,0,0,0,.93-1.61V77h0a1.82,1.82,0,0,0-.06-.46v0l-.06-.17,0,0a1.86,1.86,0,0,0-.1-.2l-.12-.18s0,0,0,0a.76.76,0,0,0-.11-.14l0,0a1.93,1.93,0,0,0-.36-.28h0l-17.1-9.87a1.85,1.85,0,0,0-1.85,0L61.79,75.39A2.19,2.19,0,0,0,61.4,75.68Z"/><path class="cls-12" d="M95.05,95.67l-4.94,2.85V93.81A1.7,1.7,0,0,1,91,92.33L95.05,90Z"/><path class="cls-12" d="M95.05,85.69l-7.72,4.46,0,0-.1.07-.06,0-.08.07-.07.06-.06.06-.06.07,0,.06-.06.08,0,.07a.56.56,0,0,0,0,.08l0,.07a.2.2,0,0,1,0,.08l0,.09,0,.08,0,.09a.29.29,0,0,0,0,.09.19.19,0,0,0,0,.08s0,.07,0,.11a.13.13,0,0,1,0,.06v.21s0,0,0,0v8.86l-4.76,2.75V87.94l13.4-7.73Z"/><polygon class="cls-12" points="79.8 69.26 85.02 72.28 79.8 75.3 74.57 72.28 79.8 69.26"/><path class="cls-12" d="M70.87,74.42a4.07,4.07,0,0,1,.37.21L78.87,79h0a.05.05,0,0,0,.05,0,1.22,1.22,0,0,1,.17.07h0a1.81,1.81,0,0,0,.69.14h0a1.84,1.84,0,0,0,.85-.21l.06,0h0l7.64-4.41.37-.21L93.19,77,79.8,84.73,66.4,77Z"/><path class="cls-12" d="M64.55,80.21,78,87.94v15.47l-4.85-2.8V91.8h0v-.07a.66.66,0,0,0,0-.14v-.06s0-.08,0-.11,0-.06,0-.08,0-.06,0-.09l0-.09,0-.08a.36.36,0,0,0,0-.09l0-.08-.05-.07a.59.59,0,0,0,0-.08l0-.07-.06-.08,0-.06a.23.23,0,0,0-.07-.07l-.06-.06-.07-.06a.46.46,0,0,0-.07-.07l-.07,0-.09-.07a.05.05,0,0,1,0,0l-7.63-4.4Z"/><path class="cls-12" d="M64.55,90l4,2.31a1.72,1.72,0,0,1,.85,1.48v4.66l-4.85-2.8Z"/></g></g></svg>