<svg xmlns="http://www.w3.org/2000/svg" xmlns:xlink="http://www.w3.org/1999/xlink" width="113.296" height="129.109" viewBox="0 0 113.296 129.109">
  <defs>
    <linearGradient id="linear-gradient" x1="0.5" y1="1" x2="0.5" gradientUnits="objectBoundingBox">
      <stop offset="0" stop-color="#ff5324"/>
      <stop offset="1" stop-color="#f7931e"/>
    </linearGradient>
  </defs>
  <g id="Сгруппировать_260" data-name="Сгруппировать 260" transform="translate(-2096.835 -3071.876)">
    <path id="Контур_1408" data-name="Контур 1408" d="M2098.473,3102.991l-.058.059a5.745,5.745,0,0,0-.389.446l-.076.095a5.129,5.129,0,0,0-.669,1.159c-.02.046-.036.092-.054.139a5.348,5.348,0,0,0-.176.513c-.012.044-.025.088-.037.133a5.508,5.508,0,0,0-.177,1.355l0,.03v59.024a5.534,5.534,0,0,0,2.767,4.794l51.111,29.506c.013.008.028.013.041.021a5.507,5.507,0,0,0,.613.3l.02.007a5.718,5.718,0,0,0,.607.205l.15.038c.168.042.339.075.512.1.055.008.109.018.163.025a5.077,5.077,0,0,0,1.322,0c.054-.007.108-.017.163-.025.173-.026.344-.059.512-.1.05-.012.1-.025.151-.039a5.4,5.4,0,0,0,.606-.2l.02-.007a5.507,5.507,0,0,0,.613-.3c.014-.008.028-.013.041-.021l51.116-29.506a5.533,5.533,0,0,0,2.768-4.794V3106.92l0-.03a5.511,5.511,0,0,0-.178-1.356c-.011-.044-.024-.088-.037-.132-.049-.173-.108-.344-.175-.514-.018-.046-.035-.092-.054-.138a5.617,5.617,0,0,0-.3-.6,5.349,5.349,0,0,0-.369-.553c-.031-.042-.066-.082-.1-.124q-.167-.21-.349-.4l-.1-.1a5.478,5.478,0,0,0-1.088-.833l-.02-.013-51.116-29.512a5.556,5.556,0,0,0-5.534,0l-51.079,29.494A5.485,5.485,0,0,0,2098.473,3102.991Z" fill="#fff"/>
    <path id="Контур_1409" data-name="Контур 1409" d="M2105.155,3107.053l-.051.052a4.762,4.762,0,0,0-.342.392c-.022.028-.045.054-.066.083a4.6,4.6,0,0,0-.33.494,4.966,4.966,0,0,0-.259.524c-.017.04-.031.081-.047.122a4.677,4.677,0,0,0-.154.451l-.033.116a4.845,4.845,0,0,0-.156,1.192v51.88a4.863,4.863,0,0,0,2.431,4.212l44.9,25.922c.012.007.025.011.036.018a4.99,4.99,0,0,0,.539.265l.018.006a4.792,4.792,0,0,0,.532.179c.044.013.089.023.133.034.147.037.3.066.45.089.048.007.095.016.143.022a4.444,4.444,0,0,0,1.161,0c.048-.006.095-.015.143-.022.153-.023.3-.052.45-.089.044-.011.088-.021.133-.034a4.826,4.826,0,0,0,.532-.179l.018-.006a4.99,4.99,0,0,0,.539-.265c.011-.007.024-.011.036-.018l44.907-25.922a4.863,4.863,0,0,0,2.431-4.212V3110.5l0-.026a4.839,4.839,0,0,0-.156-1.192c-.01-.039-.021-.077-.032-.116q-.066-.228-.154-.451c-.016-.041-.031-.082-.048-.122a4.916,4.916,0,0,0-.259-.524,4.725,4.725,0,0,0-.324-.486c-.028-.037-.058-.073-.087-.109-.1-.123-.2-.24-.307-.351-.03-.031-.059-.062-.09-.092a4.81,4.81,0,0,0-.956-.732l-.016-.011-44.907-25.927a4.886,4.886,0,0,0-4.863,0l-44.874,25.911A4.781,4.781,0,0,0,2105.155,3107.053Z" fill="url(#linear-gradient)"/>
    <path id="Контур_1410" data-name="Контур 1410" d="M2193.525,3159.552l-12.968,7.487v-12.39a4.482,4.482,0,0,1,2.24-3.881l10.728-6.191Z" fill="#b51500" opacity="0.77"/>
    <path id="Контур_1411" data-name="Контур 1411" d="M2193.525,3133.346l-20.262,11.7c-.037.021-.07.047-.106.069-.086.052-.172.106-.254.164-.058.04-.113.083-.169.126s-.135.1-.2.159-.122.109-.181.165-.106.1-.157.154-.119.128-.176.194-.09.1-.133.158-.1.138-.155.208-.083.118-.122.179-.086.138-.127.208-.076.136-.112.205-.068.136-.1.206-.066.149-.1.225-.053.141-.077.212-.051.152-.074.23-.042.158-.061.238-.032.139-.046.21c-.018.1-.032.194-.044.292-.007.056-.015.111-.02.167-.011.119-.016.239-.018.36,0,.028,0,.055,0,.083v.1c0,.012,0,.023,0,.034v23.261l-12.489,7.21V3139.24l35.182-20.312Z" fill="#b51500" opacity="0.77"/>
    <path id="Контур_1412" data-name="Контур 1412" d="M2153.48,3090.191l13.724,7.924-13.724,7.924-13.724-7.923Z" fill="#b51500" opacity="0.77"/>
    <path id="Контур_1413" data-name="Контур 1413" d="M2130.031,3103.731c.394.2.66.381.975.563l20.043,11.572c.01.006.021.007.029.021a.177.177,0,0,0,.125.087,2.1,2.1,0,0,1,.447.185l.011,0a4.837,4.837,0,0,0,1.815.353h.009a4.837,4.837,0,0,0,2.228-.552c.057-.03.116-.053.172-.085l.027-.013,20.043-11.572c.323-.187.766-.437.978-.563l11.729,6.773-35.182,20.312L2118.3,3110.5Z" fill="#b51500" opacity="0.77"/>
    <path id="Контур_1414" data-name="Контур 1414" d="M2113.441,3118.928l35.177,20.312v40.621l-12.726-7.347v-23.261c0-.028,0-.055,0-.083,0-.121-.008-.241-.019-.36,0-.056-.012-.111-.019-.167-.013-.1-.027-.2-.045-.292-.013-.071-.029-.14-.046-.21s-.038-.159-.061-.238-.047-.154-.073-.23-.05-.142-.078-.212-.063-.151-.1-.225-.064-.138-.1-.206-.073-.137-.112-.205-.082-.14-.126-.208-.08-.12-.122-.179-.1-.14-.156-.208-.087-.106-.132-.158-.116-.131-.176-.194-.1-.1-.158-.154-.118-.111-.18-.165-.132-.107-.2-.159-.111-.086-.169-.126c-.083-.058-.168-.112-.254-.164-.036-.022-.07-.048-.106-.069l-20.02-11.555Z" fill="#b51500" opacity="0.77"/>
    <path id="Контур_1415" data-name="Контур 1415" d="M2113.441,3144.716l10.485,6.052a4.481,4.481,0,0,1,2.241,3.881V3166.9l-12.726-7.348Z" fill="#b51500" opacity="0.77"/>
  </g>
</svg>
