<svg xmlns="http://www.w3.org/2000/svg" viewBox="0 0 115.78 131.66"><defs><style>.cls-1{fill:none;stroke:#ff8e01;stroke-miterlimit:10;stroke-width:2px;opacity:0.3;}</style></defs><g id="Слой_2" data-name="Слой 2"><g id="Layer_1" data-name="Layer 1"><path class="cls-1" d="M3.78,100.29l51.33,29.63,0,0a5.92,5.92,0,0,0,.62.3h0a5.46,5.46,0,0,0,.61.21l.15,0a4.64,4.64,0,0,0,.51.11l.17,0a4.68,4.68,0,0,0,.66,0,4.87,4.87,0,0,0,.66,0l.17,0a4.64,4.64,0,0,0,.51-.11l.15,0a6.26,6.26,0,0,0,.61-.21h0c.21-.09.42-.19.62-.3l0,0L112,100.29a5.57,5.57,0,0,0,2.78-4.82V36.16a5.3,5.3,0,0,0-.18-1.36l0-.13a5.34,5.34,0,0,0-.18-.52.69.69,0,0,1,0-.13,5.59,5.59,0,0,0-.3-.6,5.42,5.42,0,0,0-.37-.56l-.1-.12c-.11-.14-.23-.28-.35-.41l-.1-.1a5.53,5.53,0,0,0-1.1-.84h0L60.67,1.74a5.58,5.58,0,0,0-5.56,0L3.81,31.36a5.51,5.51,0,0,0-1.16.89l-.06.06a4.19,4.19,0,0,0-.39.45l-.08.09c-.13.18-.26.37-.38.57a4.15,4.15,0,0,0-.29.6l-.06.13c-.06.17-.12.35-.17.52a.65.65,0,0,0,0,.13A5.3,5.3,0,0,0,1,36.16V95.47A5.57,5.57,0,0,0,3.78,100.29Zm99.89-8-14.83,8.56V86.66a5.14,5.14,0,0,1,2.56-4.44l12.27-7.08Zm0-29.95L80.5,75.67l-.12.08-.29.19-.19.15a1.3,1.3,0,0,0-.23.18l-.21.19-.18.17-.2.22-.15.18-.18.24-.14.21c0,.07-.09.15-.14.23l-.13.24a2.4,2.4,0,0,0-.11.23c0,.09-.08.17-.11.26l-.09.24A2.76,2.76,0,0,0,78,79a2.68,2.68,0,0,0-.07.27l-.06.24c0,.11,0,.22,0,.33s0,.13,0,.19,0,.28,0,.41,0,.07,0,.1v26.75l-14.27,8.24V69l40.22-23.22ZM57.89,13,73.58,22,57.89,31.09,42.2,22ZM31.08,28.45c.45.22.76.44,1.12.64L55.11,42.32s0,0,0,0a.23.23,0,0,0,.15.1,2.49,2.49,0,0,1,.51.21h0a5.57,5.57,0,0,0,2.07.41h0a5.42,5.42,0,0,0,2.55-.64l.2-.09,0,0L83.58,29.09l1.12-.64,13.41,7.74L57.89,59.41,17.67,36.19Zm-19,17.37L52.33,69v46.44l-14.55-8.4V80.39c0-.13,0-.27,0-.41l0-.19c0-.11,0-.22,0-.33a2,2,0,0,0,0-.24,2.68,2.68,0,0,0-.07-.27,2.76,2.76,0,0,0-.08-.27l-.09-.24-.11-.26L37.16,78,37,77.71l-.15-.23c0-.07-.09-.14-.14-.21a1.88,1.88,0,0,0-.18-.24c0-.06-.1-.12-.15-.18l-.2-.22L36,76.46l-.2-.19a1.81,1.81,0,0,0-.23-.18l-.2-.15a2.9,2.9,0,0,0-.29-.19L35,75.67,12.12,62.47Zm0,29.48,12,6.92a5.13,5.13,0,0,1,2.57,4.44v14l-14.55-8.4Z"/></g></g></svg>