<svg xmlns="http://www.w3.org/2000/svg" xmlns:xlink="http://www.w3.org/1999/xlink" viewBox="0 0 123.69 89.74"><defs><style>.cls-1{fill:url(#Безымянный_градиент);}.cls-2{fill:url(#Безымянный_градиент_2);}.cls-3{fill:#b51500;}.cls-4{fill:url(#Безымянный_градиент_3);}.cls-5{fill:url(#Безымянный_градиент_9);}.cls-6{fill:url(#Безымянный_градиент_9-2);}.cls-7{fill:url(#Безымянный_градиент_9-3);}.cls-8{fill:url(#Безымянный_градиент_9-4);}.cls-9{fill:url(#Безымянный_градиент_9-5);}.cls-10{fill:url(#Безымянный_градиент_9-6);}.cls-11{fill:#002259;isolation:isolate;opacity:0.33;}.cls-12{fill:url(#Безымянный_градиент_10);}.cls-13{fill:url(#Безымянный_градиент_11);}</style><linearGradient id="Безымянный_градиент" x1="-881.92" y1="640.27" x2="-881.92" y2="641.27" gradientTransform="matrix(119.43, 0, 0, -89.74, 105395.7, 57548.86)" gradientUnits="userSpaceOnUse"><stop offset="0.01" stop-color="#0a0a54"/><stop offset="0.8" stop-color="#11bae5"/><stop offset="1" stop-color="#11c1ea"/></linearGradient><linearGradient id="Безымянный_градиент_2" x1="-874.01" y1="629.8" x2="-873.01" y2="629.8" gradientTransform="matrix(55.29, 0, 0, -23.94, 48355.32, 15154.43)" gradientUnits="userSpaceOnUse"><stop offset="0" stop-color="#ff8e01"/><stop offset="1" stop-color="#ed1c24"/></linearGradient><linearGradient id="Безымянный_градиент_3" x1="-826.01" y1="631.2" x2="-826.01" y2="632.2" gradientTransform="matrix(13.72, 0, 0, -27.43, 11386.2, 17374.51)" gradientUnits="userSpaceOnUse"><stop offset="0" stop-color="#f3aa25"/><stop offset="1" stop-color="#ec8b17"/></linearGradient><linearGradient id="Безымянный_градиент_9" x1="-826.19" y1="631.2" x2="-826.19" y2="632.2" gradientTransform="matrix(13.76, 0, 0, -27.43, 11435.18, 17374.51)" gradientUnits="userSpaceOnUse"><stop offset="0" stop-color="#ed1c24"/><stop offset="1" stop-color="#ff8e01"/></linearGradient><linearGradient id="Безымянный_градиент_9-2" x1="-763.12" y1="592.43" x2="-762.12" y2="592.43" gradientTransform="matrix(6.85, 0, 0, -6.85, 5250.45, 4127.6)" xlink:href="#Безымянный_градиент_9"/><linearGradient id="Безымянный_градиент_9-3" x1="-763.12" y1="592.43" x2="-762.12" y2="592.43" gradientTransform="matrix(6.85, 0, 0, -6.85, 5237.4, 4127.6)" xlink:href="#Безымянный_градиент_9"/><linearGradient id="Безымянный_градиент_9-4" x1="-763.12" y1="592.43" x2="-762.12" y2="592.43" gradientTransform="matrix(6.85, 0, 0, -6.85, 5338.18, 4127.76)" xlink:href="#Безымянный_градиент_9"/><linearGradient id="Безымянный_градиент_9-5" x1="-763.12" y1="592.43" x2="-762.12" y2="592.43" gradientTransform="matrix(6.85, 0, 0, -6.85, 5325.14, 4127.76)" xlink:href="#Безымянный_градиент_9"/><linearGradient id="Безымянный_градиент_9-6" x1="-763.12" y1="592.43" x2="-762.12" y2="592.43" gradientTransform="matrix(6.85, 0, 0, -6.85, 5224.32, 4127.76)" xlink:href="#Безымянный_градиент_9"/><linearGradient id="Безымянный_градиент_10" x1="-866.33" y1="635.11" x2="-865.33" y2="635.11" gradientTransform="matrix(37.11, 0, 0, -37.12, 32219.84, 23602.91)" gradientUnits="userSpaceOnUse"><stop offset="0" stop-color="#f3aa25"/><stop offset="1" stop-color="#feec99"/></linearGradient><linearGradient id="Безымянный_градиент_11" x1="-848.87" y1="627.89" x2="-847.87" y2="627.89" gradientTransform="matrix(21.23, 0, 0, -21.23, 18098.77, 13356.85)" gradientUnits="userSpaceOnUse"><stop offset="0.01" stop-color="#0a0a54"/><stop offset="1" stop-color="#1c75bc"/></linearGradient></defs><g id="Слой_2" data-name="Слой 2"><g id="Слой_1-2" data-name="Слой 1"><g id="Сгруппировать_310" data-name="Сгруппировать 310"><path id="Контур_1439" data-name="Контур 1439" class="cls-1" d="M95.23,63.3l3.15-36.74L80.86,43.82,63.65,0,44.56,43.4,30.65,25,33.76,63.3,4.26,43.92,23.7,89.74h80.55l19.44-45.82Z"/><g id="Сгруппировать_307" data-name="Сгруппировать 307"><g id="Сгруппировать_306" data-name="Сгруппировать 306"><path id="Контур_1440" data-name="Контур 1440" class="cls-2" d="M77.32,65.8H49.68L35.86,89.74H91.14Z"/><path id="Контур_1441" data-name="Контур 1441" class="cls-3" d="M77.32,65.8,35.86,89.74H91.14Z"/></g><path id="Контур_1442" data-name="Контур 1442" class="cls-4" d="M49.79,45.75A13.71,13.71,0,0,0,63.5,59.46h0V32A13.71,13.71,0,0,0,49.79,45.75Z"/><path id="Контур_1443" data-name="Контур 1443" class="cls-5" d="M63.51,32V59.46A13.72,13.72,0,1,0,63.58,32Z"/></g><path id="Контур_1444" data-name="Контур 1444" class="cls-6" d="M29.54,68.44h0a3.43,3.43,0,0,0,0,6.85h0a3.43,3.43,0,0,0,0-6.85Z"/><path id="Контур_1445" data-name="Контур 1445" class="cls-7" d="M16.49,68.44h0a3.43,3.43,0,0,0,0,6.85h0a3.43,3.43,0,0,0,0-6.85Z"/><path id="Контур_1446" data-name="Контур 1446" class="cls-8" d="M117.32,68.44h0a3.43,3.43,0,1,0,0,6.85h0a3.43,3.43,0,0,0,0-6.85Z"/><path id="Контур_1447" data-name="Контур 1447" class="cls-9" d="M104.26,68.44h0a3.43,3.43,0,0,0,0,6.85h0a3.43,3.43,0,0,0,0-6.85Z"/><path id="Контур_1448" data-name="Контур 1448" class="cls-10" d="M3.44,68.44h0a3.43,3.43,0,1,0,0,6.85h0a3.43,3.43,0,0,0,0-6.85Z"/><g id="Сгруппировать_309" data-name="Сгруппировать 309"><path id="Контур_1449" data-name="Контур 1449" class="cls-11" d="M95.65,25.71h0a7.55,7.55,0,0,1-6.43-11.47,17.54,17.54,0,1,0,11.13,9.82A7.5,7.5,0,0,1,95.65,25.71Z"/><g id="Сгруппировать_308" data-name="Сгруппировать 308"><path id="Контур_1450" data-name="Контур 1450" class="cls-12" d="M87,9.07h0a18.56,18.56,0,0,0,0,37.12h0A18.56,18.56,0,1,0,87.3,9.07Z"/><path id="Контур_1451" data-name="Контур 1451" class="cls-13" d="M97.65,29.89H89.29v8.35H84.77V29.89H76.42V25.37h8.35V17h4.52v8.35h8.36Z"/></g></g></g></g></g></svg>