<svg xmlns="http://www.w3.org/2000/svg" xmlns:xlink="http://www.w3.org/1999/xlink" viewBox="0 0 102.62 120.01"><defs><style>.cls-1,.cls-2{fill:none;stroke:#3aafd8;stroke-miterlimit:10;}.cls-1{stroke-width:3px;opacity:0.33;}.cls-2{opacity:0.25;}.cls-3{fill:url(#linear-gradient);}.cls-4{fill:url(#linear-gradient-2);}.cls-5{fill:url(#linear-gradient-3);}.cls-6{fill:url(#New_Gradient_Swatch_4);}.cls-7{fill:#b51500;opacity:0.77;}.cls-8{fill:url(#New_Gradient_Swatch_4-2);}.cls-9{fill:url(#New_Gradient_Swatch_4-3);}.cls-10{fill:#6ad6ef;}.cls-11{fill:url(#linear-gradient-4);}.cls-12{fill:#002259;}.cls-13{fill:url(#linear-gradient-5);}.cls-14{fill:url(#linear-gradient-6);}</style><linearGradient id="linear-gradient" x1="92.21" y1="74.63" x2="92.21" y2="28.78" gradientUnits="userSpaceOnUse"><stop offset="0" stop-color="#b0ebff" stop-opacity="0.7"/><stop offset="0.84" stop-color="#0061b3" stop-opacity="0"/></linearGradient><linearGradient id="linear-gradient-2" x1="54.22" y1="75.14" x2="54.22" y2="0" xlink:href="#linear-gradient"/><linearGradient id="linear-gradient-3" x1="13.47" y1="51.92" x2="13.47" y2="9.45" xlink:href="#linear-gradient"/><linearGradient id="New_Gradient_Swatch_4" x1="92.21" y1="81.25" x2="92.21" y2="61.66" gradientUnits="userSpaceOnUse"><stop offset="0" stop-color="#ff5324"/><stop offset="1" stop-color="#f7931e"/></linearGradient><linearGradient id="New_Gradient_Swatch_4-2" x1="54.22" y1="97.85" x2="54.22" y2="43.51" xlink:href="#New_Gradient_Swatch_4"/><linearGradient id="New_Gradient_Swatch_4-3" x1="13.47" y1="63.78" x2="13.47" y2="33.07" xlink:href="#New_Gradient_Swatch_4"/><linearGradient id="linear-gradient-4" x1="3438.38" y1="429.21" x2="3433.55" y2="420.84" gradientTransform="matrix(-1, 0, 0, 1, 3446.58, -329.43)" gradientUnits="userSpaceOnUse"><stop offset="0.01" stop-color="#002259"/><stop offset="1" stop-color="#1c75bc"/></linearGradient><linearGradient id="linear-gradient-5" x1="3354.13" y1="5480.02" x2="3350.06" y2="5472.97" gradientTransform="translate(3446.58 5572.08) rotate(180)" xlink:href="#linear-gradient-4"/><linearGradient id="linear-gradient-6" x1="6190.8" y1="1969.29" x2="6186.27" y2="1961.44" gradientTransform="translate(-4739.94 4397.06) rotate(-60)" xlink:href="#linear-gradient-4"/></defs><g id="Слой_2" data-name="Слой 2"><g id="Layer_1" data-name="Layer 1"><polygon class="cls-1" points="22.94 52.75 22.94 89.62 54.88 108.06 86.81 89.62 86.81 52.75 54.88 34.31 22.94 52.75"/><polygon class="cls-2" points="13.09 47.06 13.09 95.31 54.88 119.43 96.66 95.31 96.66 47.06 54.88 22.93 13.09 47.06"/><path class="cls-3" d="M83.86,33.5h0l-.06.07h0a3160329207209.29,3160329207209.29,0,0,0-.1.18v0a.24.24,0,0,0,0,.08v0a.76.76,0,0,0,0,.21h0V69.32A.83.83,0,0,0,84,70l7.76,4.48h0a.31.31,0,0,0,.1,0h0l.09,0h.45l.09,0h0l.09,0h0L100.38,70a.83.83,0,0,0,.42-.72V34.1h0a.76.76,0,0,0,0-.21v0l0-.08v0a.36.36,0,0,0,0-.09l-.06-.08v0l-.05-.06,0,0a1.09,1.09,0,0,0-.17-.13h0L92.63,28.9a.84.84,0,0,0-.84,0L84,33.37A.83.83,0,0,0,83.86,33.5Z"/><path class="cls-4" d="M31.07,13.09l0,0a1.54,1.54,0,0,0-.17.19l0,0a1.88,1.88,0,0,0-.16.23l-.12.25a.14.14,0,0,0,0,.06,2,2,0,0,0-.08.22v.05a2.24,2.24,0,0,0-.08.57V60.4a2.33,2.33,0,0,0,1.17,2l21.5,12.41h0a2.1,2.1,0,0,0,.26.13h0l.25.09h.07l.21.05h.7l.21-.05h.06L55.1,75h0l.26-.13h0L76.89,62.42a2.35,2.35,0,0,0,1.17-2V14.73a2.24,2.24,0,0,0-.08-.57.43.43,0,0,1,0-.05,2,2,0,0,0-.08-.22.14.14,0,0,0,0-.06l-.12-.25a1.88,1.88,0,0,0-.16-.23l0,0-.15-.17,0,0a1.93,1.93,0,0,0-.46-.35h0L55.38.31a2.36,2.36,0,0,0-2.33,0L31.56,12.72A2.52,2.52,0,0,0,31.07,13.09Z"/><path class="cls-5" d="M.39,16.85h0L.28,17v0a.51.51,0,0,0-.09.13,1,1,0,0,0-.07.15l0,0s0,.08,0,.12v0a1.86,1.86,0,0,0,0,.33H0v25.8a1.32,1.32,0,0,0,.66,1.15l12.15,7h0l.15.07h0l.14,0h0l.12,0h.39l.12,0h0l.14,0h0l.14-.07h0l12.16-7A1.32,1.32,0,0,0,27,43.58V17.78h0a1.26,1.26,0,0,0-.05-.33v0l0-.12v0a1,1,0,0,0-.07-.15L26.68,17l0,0-.08-.09,0,0a1.24,1.24,0,0,0-.26-.19h0l-12.16-7a1.35,1.35,0,0,0-1.32,0l-12.14,7A1.14,1.14,0,0,0,.39,16.85Z"/><path class="cls-6" d="M83.86,66.38h0l-.06.07h0a.41.41,0,0,0,0,.09.41.41,0,0,0,0,.09v0a.24.24,0,0,0,0,.08v0a.69.69,0,0,0,0,.2h0v9a.84.84,0,0,0,.42.73l7.76,4.48h0l.1,0h0l.09,0h0l.08,0h.25l.08,0h0l.1,0h0l.09,0h0l7.75-4.48a.84.84,0,0,0,.42-.73V67h0a.69.69,0,0,0,0-.2v0l0-.08v0a.36.36,0,0,0,0-.09l-.06-.09h0l-.05-.06,0,0-.16-.13h0l-7.75-4.48a.84.84,0,0,0-.84,0L84,66.25A.75.75,0,0,0,83.86,66.38Z"/><path class="cls-7" d="M99.12,75.45l-2.24,1.29V74.6a.79.79,0,0,1,.39-.67l1.85-1.07Z"/><path class="cls-7" d="M99.12,70.92l-3.5,2h0l0,0,0,0,0,0,0,0,0,0,0,0,0,0,0,0,0,0,0,0,0,0,0,0,0,0v.15a.43.43,0,0,1,0,0v0s0,0,0,.07h0v0h0v4L93.05,79v-7l6.07-3.51Z"/><polygon class="cls-7" points="92.21 63.47 94.58 64.84 92.21 66.21 89.84 64.84 92.21 63.47"/><path class="cls-7" d="M88.16,65.81a1,1,0,0,1,.17.1l3.46,2h0l.08,0h0a.87.87,0,0,0,.32.06h0a.86.86,0,0,0,.38-.1h0l3.46-2a1.06,1.06,0,0,1,.17-.1l2,1.17-6.07,3.51L86.13,67Z"/><path class="cls-7" d="M85.29,68.43l6.08,3.51v7l-2.2-1.27v-4h0v0h0v-.22l0,0v0l0,0v0l0,0,0,0,0,0,0,0,0,0,0,0,0,0,0,0,0,0,0,0,0,0h0l-3.46-2Z"/><path class="cls-7" d="M85.29,72.89l1.81,1a.79.79,0,0,1,.39.67v2.12l-2.2-1.27Z"/><path class="cls-8" d="M31.07,56.61l0,0a1.54,1.54,0,0,0-.17.19l0,0a1.43,1.43,0,0,0-.16.24l-.12.25a.14.14,0,0,0,0,.06,1.8,1.8,0,0,0-.08.21v.06a2.24,2.24,0,0,0-.08.57h0V83.1a2.33,2.33,0,0,0,1.17,2l21.5,12.41h0a2.1,2.1,0,0,0,.26.13h0a2.5,2.5,0,0,0,.25.09h.07l.21,0h.07l.28,0,.28,0h.07l.21,0h.06a2,2,0,0,0,.26-.09h0l.26-.13h0L76.89,85.12a2.35,2.35,0,0,0,1.17-2V58.26h0a2.24,2.24,0,0,0-.08-.57s0,0,0-.06a1.8,1.8,0,0,0-.08-.21.14.14,0,0,0,0-.06l-.12-.25a2,2,0,0,0-.16-.24l0,0-.15-.17,0,0a1.93,1.93,0,0,0-.46-.35h0L55.38,43.82a2.36,2.36,0,0,0-2.33,0L31.56,56.24A2.18,2.18,0,0,0,31.07,56.61Z"/><path class="cls-7" d="M73.4,81.75l-6.21,3.59V79.41a2.15,2.15,0,0,1,1.07-1.86l5.14-3Z"/><path class="cls-7" d="M73.4,69.2l-9.71,5.6,0,0-.12.08s-.05,0-.08.06l-.09.07-.09.08-.08.07-.08.1-.06.07-.08.1-.06.09-.06.1a.93.93,0,0,0-.05.1l0,.09a1.17,1.17,0,0,1-.05.11l0,.1s0,.08,0,.11l0,.12a.36.36,0,0,1,0,.1s0,.09,0,.14,0,0,0,.08,0,.11,0,.17V88l-6,3.45V72L73.4,62.3Z"/><polygon class="cls-7" points="54.22 48.53 60.79 52.33 54.22 56.12 47.65 52.33 54.22 48.53"/><path class="cls-7" d="M43,55c.18.09.31.18.46.27l9.6,5.54h0a.07.07,0,0,0,.06,0,1,1,0,0,1,.21.09h0a2.36,2.36,0,0,0,.87.17h0a2.41,2.41,0,0,0,1.07-.26l.08,0h0L65,55.29l.47-.27,5.62,3.24L54.22,68,37.37,58.26Z"/><path class="cls-7" d="M35,62.3,51.89,72V91.48L45.79,88V76.78a1,1,0,0,0,0-.17.22.22,0,0,0,0-.08.68.68,0,0,0,0-.14.36.36,0,0,0,0-.1l0-.12,0-.11a.3.3,0,0,1,0-.1,1.17,1.17,0,0,1-.05-.11.41.41,0,0,0,0-.09.31.31,0,0,0-.05-.1l-.06-.1-.06-.09a.86.86,0,0,1-.07-.1.46.46,0,0,0-.07-.07l-.08-.1-.08-.07a.6.6,0,0,0-.08-.08l-.1-.07a.24.24,0,0,0-.08-.06l-.12-.08,0,0L35,69.27Z"/><path class="cls-7" d="M35,74.65l5,2.9a2.13,2.13,0,0,1,1.08,1.86v5.86L35,81.75Z"/><path class="cls-9" d="M.39,40.47v0a.52.52,0,0,0-.1.11v0a.38.38,0,0,0-.09.13s0,.1-.07.14l0,0,0,.12v0a1.75,1.75,0,0,0,0,.32H0v14a1.32,1.32,0,0,0,.66,1.14l12.15,7h0l.15.07h0l.14,0h0l.12,0h.39l.12,0h0l.14,0h0l.14-.07h0l12.16-7A1.32,1.32,0,0,0,27,55.45v-14h0a1.19,1.19,0,0,0-.05-.32v0l0-.12v0s0-.09-.07-.14l-.09-.13,0,0-.08-.09,0,0a1.28,1.28,0,0,0-.26-.2h0l-12.16-7a1.35,1.35,0,0,0-1.32,0l-12.14,7A1.46,1.46,0,0,0,.39,40.47Z"/><path class="cls-7" d="M24.31,54.69l-3.51,2V53.36a1.21,1.21,0,0,1,.61-1l2.9-1.68Z"/><path class="cls-7" d="M24.31,47.59l-5.48,3.17,0,0-.07,0,0,0-.06,0-.05,0,0,.05-.05,0,0,0-.05.06,0,0,0,.05,0,.06,0,.05,0,.06a1236252820484.92,1236252820484.92,0,0,0,0,.12s0,0,0,.07,0,0,0,.06a.17.17,0,0,1,0,.07v.05a.31.31,0,0,0,0,.1v0h0v6.29l-3.38,2v-11l9.52-5.5Z"/><polygon class="cls-7" points="13.47 35.91 17.19 38.05 13.47 40.2 9.76 38.05 13.47 35.91"/><path class="cls-7" d="M7.12,39.58c.11.05.18.1.27.15l5.42,3.13h0a.05.05,0,0,0,0,0l.12,0h0a1.23,1.23,0,0,0,.49.1h0a1.31,1.31,0,0,0,.61-.15l0,0h0l5.43-3.13.26-.15L23,41.41l-9.53,5.5L4,41.41Z"/><path class="cls-7" d="M2.63,43.69l9.53,5.5v11l-3.45-2V51.94h0v-.2s0,0,0-.07a.13.13,0,0,1,0-.06.14.14,0,0,1,0-.07l0-.06s0,0,0-.06l0-.06,0-.05a.09.09,0,0,0,0-.06l0-.05,0,0,0-.06,0,0-.05,0,0-.05-.05,0-.05,0,0,0-.07,0,0,0L2.63,47.63Z"/><path class="cls-7" d="M2.63,50.67l2.84,1.64a1.21,1.21,0,0,1,.61,1v3.32l-3.45-2Z"/><polygon class="cls-10" points="17.06 90.02 20.28 95.59 13.84 95.59 10.62 90.02 17.06 90.02"/><polygon class="cls-11" points="13.84 95.59 10.62 101.17 7.39 95.59 10.62 90.02 13.84 95.59"/><polygon class="cls-12" points="20.28 95.59 13.84 95.59 10.62 101.17 17.06 101.17 20.28 95.59"/><polygon class="cls-10" points="99.91 100.29 102.63 95.59 97.2 95.59 94.48 100.29 99.91 100.29"/><polygon class="cls-13" points="97.2 95.59 94.48 90.89 91.77 95.59 94.48 100.29 97.2 95.59"/><polygon class="cls-12" points="102.63 95.59 97.2 95.59 94.48 90.89 99.91 90.89 102.63 95.59"/><polygon class="cls-10" points="48.83 22.93 51.85 28.17 54.88 22.93 51.85 17.7 48.83 22.93"/><polygon class="cls-14" points="54.88 22.93 60.92 22.93 57.9 17.7 51.85 17.7 54.88 22.93"/><polygon class="cls-12" points="51.85 28.17 54.88 22.93 60.92 22.93 57.9 28.17 51.85 28.17"/></g></g></svg>